<svg width="60" height="61" viewBox="0 0 60 61" fill="none" xmlns="http://www.w3.org/2000/svg">
  <path
    d="M41.25 23C41.25 29.2132 36.2132 34.25 30 34.25C23.7868 34.25 18.75 29.2132 18.75 23C18.75 16.7868 23.7868 11.75 30 11.75C36.2132 11.75 41.25 16.7868 41.25 23Z"
    fill="#454545" />
  <path fill-rule="evenodd" clip-rule="evenodd"
    d="M0 30.5C0 13.9315 13.4315 0.5 30 0.5C46.5685 0.5 60 13.9315 60 30.5C60 47.0685 46.5685 60.5 30 60.5C13.4315 60.5 0 47.0685 0 30.5ZM30 4.25C15.5025 4.25 3.75 16.0025 3.75 30.5C3.75 36.7004 5.89971 42.3986 9.49448 46.8901C12.161 42.5947 18.0174 38 30 38C41.9827 38 47.839 42.5947 50.5056 46.8901C54.1003 42.3986 56.25 36.7004 56.25 30.5C56.25 16.0025 44.4975 4.25 30 4.25Z"
    fill="#454545" />
</svg>