<?xml version="1.0" encoding="iso-8859-1"?>
<!-- Uploaded to: SVG Repo, www.svgrepo.com, Generator: SVG Repo Mixer Tools -->
<!DOCTYPE svg PUBLIC "-//W3C//DTD SVG 1.1//EN" "http://www.w3.org/Graphics/SVG/1.1/DTD/svg11.dtd">
<svg fill="#454545" height="800px" width="800px" version="1.1" id="Capa_1"
  xmlns="http://www.w3.org/2000/svg" xmlns:xlink="http://www.w3.org/1999/xlink"
  viewBox="0 0 206.262 206.262" xml:space="preserve">
<path d="M197.547,165.558v33.204c0,4.143-3.358,7.5-7.5,7.5H16.215c-4.142,0-7.5-3.357-7.5-7.5v-33.204
	c0-14.646,8.724-27.637,22.253-33.185l32.874-16.326c1.828-0.907,3.947-1.029,5.869-0.342c1.921,0.689,3.479,2.133,4.313,3.996
	l14.599,32.62l2.45-8.202l-2.929-7.158c-0.946-2.313-0.679-4.945,0.714-7.021c1.393-2.074,3.728-3.319,6.227-3.319h16.091
	c2.499,0,4.834,1.245,6.227,3.319c1.393,2.075,1.661,4.707,0.714,7.021l-2.928,7.158l2.45,8.202l14.599-32.62
	c0.834-1.863,2.391-3.307,4.313-3.996c1.922-0.688,4.041-0.564,5.869,0.342l32.874,16.326
	C188.823,137.921,197.547,150.911,197.547,165.558z M141.755,62.062C141.755,62.062,141.517,61.995,141.755,62.062L141.755,62.062z
	 M155.6,71.988c-3.259,12.462-10.642,16.199-15.501,17.277c-2.76,5.372-7.938,14.603-13.208,19.521
	c-2.416,2.255-5.516,4.141-9.214,5.608c-4.635,1.839-9.53,2.771-14.546,2.771s-9.911-0.933-14.547-2.771
	c-3.698-1.468-6.798-3.354-9.213-5.608c-5.27-4.919-10.449-14.149-13.208-19.521c-4.858-1.078-12.242-4.815-15.5-17.277
	c-1.919-7.339-1.36-13.425,1.663-18.09c1.026-1.583,2.207-2.795,3.387-3.722c0.045-1.588,0.166-3.49,0.403-5.59
	c0.01-0.095,0.008-0.189,0.021-0.284c0.015-0.104,0.035-0.216,0.05-0.322c0.974-7.967,3.737-18.723,11.213-27.583
	c2.134-2.529,4.452-4.668,6.847-6.476C81.082,4.05,90.101,0,101.765,0c0.448,0,0.901,0.01,1.357,0.021c0.002,0,0.007,0,0.009,0
	c0.167,0,1.041,0.007,2.44,0.122c30.101,1.967,41.339,24.276,43.134,36.331c1.319,5.369,1.747,10.252,1.846,13.702
	c1.181,0.927,2.361,2.139,3.387,3.722C156.96,58.563,157.519,64.649,155.6,71.988z M135.59,54.02l-0.075-0.006
	c0.005-0.064,0.249-3.447-0.316-8.154c-3.33,0.229-7.555,0.434-12.051,0.434c-11.165,0-19.338-1.215-24.986-3.715
	c-4.616-2.043-8.387-4.315-11.381-6.461c-1.066,1.96-2.373,3.912-3.958,5.624c-4.042,4.365-8.663,7.148-12.108,8.798
	c-0.065,2.11,0.026,3.428,0.03,3.474c0.325,3.732-2.15,7.103-5.749,7.949c-0.311,0.247-0.909,2.081,0.176,6.23
	c1.039,3.972,2.72,6.379,4.516,6.484c0.661-0.199,1.303-0.295,1.92-0.295c2.68,0,4.898,1.789,6.18,4.547
	c2.503,5.376,7.927,15.262,11.816,18.892c1.182,1.103,3.07,2.143,5.41,2.967c5.234,1.844,10.994,1.844,16.228,0
	c2.341-0.824,4.23-1.864,5.413-2.968c3.904-3.645,9.319-13.521,11.815-18.892c1.575-3.389,4.564-5.312,8.087-4.256
	c1.833-0.134,3.498-2.535,4.53-6.48c0.962-3.679,0.679-5.182,0.667-6.132c-0.003-0.232,0.012-0.19,0.017-0.116
	C142.402,58.012,139.564,54.365,135.59,54.02z"/>
</svg>