<svg width="100" height="100" viewBox="0 0 100 100" fill="none" xmlns="http://www.w3.org/2000/svg">
<circle cx="50" cy="50" r="50" fill="#D9D9D9"/>
<path d="M82.1626 76.25C77.4032 68.0219 70.0689 62.1219 61.5095 59.325C65.7433 56.8046 69.0328 52.964 70.8727 48.3931C72.7125 43.8222 73.0011 38.7738 71.694 34.023C70.387 29.2722 67.5566 25.0819 63.6375 22.0954C59.7185 19.1089 54.9274 17.4915 50.0001 17.4915C45.0728 17.4915 40.2818 19.1089 36.3627 22.0954C32.4436 25.0819 29.6132 29.2722 28.3062 34.023C26.9991 38.7738 27.2877 43.8222 29.1276 48.3931C30.9674 52.964 34.2569 56.8046 38.4907 59.325C29.9314 62.1188 22.597 68.0188 17.8376 76.25C17.6631 76.5346 17.5473 76.8513 17.4971 77.1813C17.447 77.5114 17.4634 77.8481 17.5455 78.1717C17.6276 78.4953 17.7737 78.7992 17.9751 79.0654C18.1765 79.3317 18.4292 79.5549 18.7183 79.7218C19.0074 79.8888 19.327 79.9962 19.6583 80.0377C19.9895 80.0791 20.3257 80.0538 20.6471 79.9632C20.9684 79.8727 21.2683 79.7186 21.5291 79.5103C21.79 79.3019 22.0064 79.0434 22.1657 78.75C28.0532 68.575 38.4595 62.5 50.0001 62.5C61.5407 62.5 71.947 68.575 77.8345 78.75C77.9938 79.0434 78.2103 79.3019 78.4711 79.5103C78.7319 79.7186 79.0318 79.8727 79.3532 79.9632C79.6745 80.0538 80.0107 80.0791 80.342 80.0377C80.6732 79.9962 80.9928 79.8888 81.2819 79.7218C81.571 79.5549 81.8237 79.3317 82.0251 79.0654C82.2266 78.7992 82.3726 78.4953 82.4547 78.1717C82.5368 77.8481 82.5533 77.5114 82.5031 77.1813C82.4529 76.8513 82.3371 76.5346 82.1626 76.25ZM32.5001 40C32.5001 36.5388 33.5265 33.1554 35.4494 30.2775C37.3723 27.3997 40.1054 25.1567 43.3032 23.8321C46.5009 22.5076 50.0195 22.161 53.4142 22.8363C56.8089 23.5115 59.9271 25.1782 62.3745 27.6256C64.8219 30.0731 66.4886 33.1913 67.1639 36.5859C67.8391 39.9806 67.4925 43.4993 66.168 46.697C64.8435 49.8947 62.6005 52.6278 59.7226 54.5507C56.8447 56.4737 53.4613 57.5 50.0001 57.5C45.3603 57.4951 40.912 55.6497 37.6312 52.3689C34.3504 49.0881 32.5051 44.6398 32.5001 40Z" fill="#343330"/>
</svg>
